<?xml version="1.0" encoding="iso-8859-1"?>
<!-- Generator: Adobe Illustrator 19.0.0, SVG Export Plug-In . SVG Version: 6.00 Build 0)  -->
<svg version="1.1" id="Capa_1" xmlns="http://www.w3.org/2000/svg" xmlns:xlink="http://www.w3.org/1999/xlink" x="0px" y="0px"
	 viewBox="0 0 512 512" style="enable-background:new 0 0 512 512;" xml:space="preserve">
<path style="fill:#7C84E8;" d="M380.179,512H116.118c-35.307,0-63.929-28.622-63.929-63.929V64.136
	c0-35.307,28.622-63.929,63.929-63.929h264.061c35.307,0,63.929,28.622,63.929,63.929v383.935
	C444.108,483.378,415.485,512,380.179,512z"/>
<path style="fill:#C4C8F5;" d="M425.73,511.793H161.67c-35.307,0-63.929-28.622-63.929-63.929V63.929
	C97.741,28.622,126.362,0,161.67,0h264.06c35.307,0,63.929,28.622,63.929,63.929v383.935
	C489.659,483.171,461.037,511.793,425.73,511.793z"/>
<path style="fill:#A7ADF0;" d="M304.805,0H161.67c-35.308,0-63.929,28.622-63.929,63.929v383.935
	c0,35.307,28.622,63.929,63.929,63.929h73.907C185.803,152.525,304.805,0,304.805,0z"/>
<g>
	<path style="fill:#E9F6FF;" d="M384.078,139.788H237.744c-20.392,0-37.078-16.685-37.078-37.078l0,0
		c0-20.392,16.685-37.078,37.078-37.078h146.333c20.392,0,37.078,16.685,37.078,37.078l0,0
		C421.155,123.104,404.47,139.788,384.078,139.788z"/>
	<path style="fill:#E9F6FF;" d="M237.744,65.633c-20.392,0-37.078,16.685-37.078,37.078l0,0c0,20.392,16.685,37.078,37.078,37.078
		h8.818c7.422-29.598,15.803-54.235,23.849-74.155H237.744z"/>
</g>
<path style="fill:#57565C;" d="M328.28,226.915h-34.738c-6.775,0.022-10.677,1.799-10.577,7.328
	c0.325,18.044,4.17,51.049,27.946,51.049c23.775,0,27.62-33.006,27.946-51.049C338.956,228.714,335.055,226.936,328.28,226.915z"/>
<path style="fill:#FF737D;" d="M310.911,255.823c-9.557,0-18.062,3.327-23.546,8.502c3.826,11.534,10.837,20.967,23.546,20.967
	c12.708,0,19.72-9.433,23.546-20.967C328.973,259.151,320.468,255.823,310.911,255.823z"/>
<g>
	<path style="fill:#57565C;" d="M393.968,239.772c-4.266,0-7.723-3.458-7.723-7.723v-12.822c0-4.265,3.457-7.723,7.723-7.723
		s7.723,3.458,7.723,7.723v12.822C401.692,236.314,398.234,239.772,393.968,239.772z"/>
	<path style="fill:#57565C;" d="M227.853,239.772c-4.266,0-7.723-3.458-7.723-7.723v-12.822c0-4.265,3.457-7.723,7.723-7.723
		c4.266,0,7.723,3.458,7.723,7.723v12.822C235.576,236.314,232.119,239.772,227.853,239.772z"/>
</g>
<g>
	<path style="fill:#787680;" d="M106.436,105.682H47.942c-14.081,0-25.601-11.52-25.601-25.601l0,0
		c0-14.081,11.52-25.601,25.601-25.601h58.495c14.081,0,25.601,11.52,25.601,25.601l0,0
		C132.038,94.161,120.517,105.682,106.436,105.682z"/>
	<path style="fill:#787680;" d="M106.436,193.59H47.942c-14.081,0-25.601-11.52-25.601-25.601l0,0
		c0-14.081,11.52-25.601,25.601-25.601h58.495c14.081,0,25.601,11.52,25.601,25.601l0,0
		C132.038,182.07,120.517,193.59,106.436,193.59z"/>
	<path style="fill:#787680;" d="M106.436,281.497H47.942c-14.081,0-25.601-11.521-25.601-25.601l0,0
		c0-14.081,11.52-25.601,25.601-25.601h58.495c14.081,0,25.601,11.52,25.601,25.601l0,0
		C132.038,269.978,120.517,281.497,106.436,281.497z"/>
	<path style="fill:#787680;" d="M106.436,369.405H47.942c-14.081,0-25.601-11.521-25.601-25.601l0,0
		c0-14.081,11.52-25.601,25.601-25.601h58.495c14.081,0,25.601,11.521,25.601,25.601l0,0
		C132.038,357.885,120.517,369.405,106.436,369.405z"/>
	<path style="fill:#787680;" d="M106.436,457.313H47.942c-14.081,0-25.601-11.521-25.601-25.601l0,0
		c0-14.081,11.52-25.601,25.601-25.601h58.495c14.081,0,25.601,11.52,25.601,25.601l0,0
		C132.038,445.793,120.517,457.313,106.436,457.313z"/>
</g>
<g>
</g>
<g>
</g>
<g>
</g>
<g>
</g>
<g>
</g>
<g>
</g>
<g>
</g>
<g>
</g>
<g>
</g>
<g>
</g>
<g>
</g>
<g>
</g>
<g>
</g>
<g>
</g>
<g>
</g>
</svg>
