<?xml version="1.0" encoding="iso-8859-1"?>
<!-- Generator: Adobe Illustrator 19.0.0, SVG Export Plug-In . SVG Version: 6.00 Build 0)  -->
<svg version="1.1" id="Capa_1" xmlns="http://www.w3.org/2000/svg" xmlns:xlink="http://www.w3.org/1999/xlink" x="0px" y="0px"
	 viewBox="0 0 512 512" style="enable-background:new 0 0 512 512;" xml:space="preserve">
<path style="fill:#E06A19;" d="M456.289,80.042c-35.983-35.984-83.826-55.801-134.714-55.801s-98.731,19.817-134.714,55.801
	l-146.199,146.2C14.441,252.462,0,287.324,0,324.405s14.441,71.944,40.662,98.165c54.128,54.129,142.2,54.129,196.328,0
	l142.544-142.544c16.458-16.458,25.522-38.34,25.522-61.614s-9.064-45.156-25.522-61.614c-16.458-16.459-38.34-25.522-61.614-25.522
	s-45.156,9.063-61.614,25.522L146.655,266.445c-13.82,13.82-13.82,36.309,0,50.13c6.695,6.696,15.597,10.383,25.065,10.383
	c9.469,0,18.37-3.687,25.065-10.383l109.649-109.649c3.068-3.068,7.147-4.757,11.485-4.757c4.338,0,8.417,1.69,11.485,4.757
	c6.332,6.333,6.332,16.637,0,22.969L186.861,372.44c-26.487,26.486-69.583,26.485-96.068,0
	c-12.831-12.831-19.897-29.89-19.897-48.034c0-18.146,7.066-35.204,19.897-48.034l146.2-146.2
	c46.641-46.639,122.528-46.639,169.169,0c46.64,46.64,46.64,122.529,0,169.169L278.237,427.264
	c-6.696,6.696-10.383,15.597-10.383,25.066c0,9.468,3.687,18.369,10.383,25.066c6.91,6.909,15.987,10.364,25.064,10.364
	c9.078,0,18.156-3.456,25.066-10.365l127.924-127.924C530.571,275.188,530.57,154.322,456.289,80.042z"/>
<g>
	<path style="fill:#E9A828;" d="M317.92,131.274c-23.275,0-45.156,9.063-61.614,25.522L146.655,266.445
		c-13.82,13.82-13.82,36.309,0.001,50.13c6.695,6.696,15.597,10.383,25.065,10.383c9.469,0,18.37-3.687,25.065-10.383
		l109.649-109.649c3.068-3.068,7.147-4.757,11.485-4.757s8.417,1.69,11.485,4.757l0,0l50.13-50.13l0,0
		C363.076,140.337,341.194,131.274,317.92,131.274z"/>
	<path style="fill:#E9A828;" d="M321.575,24.241c-50.888,0-98.731,19.817-134.714,55.801l-146.199,146.2
		C14.441,252.462,0,287.324,0,324.405s14.441,71.944,40.662,98.165c12.912,12.913,27.758,22.737,43.611,29.488l59.987-59.987
		c-19.159,1.524-38.845-5.008-53.468-19.631c-12.831-12.831-19.897-29.89-19.897-48.034c0-18.146,7.066-35.204,19.897-48.034
		l146.199-146.2c46.641-46.639,122.528-46.639,169.169,0l0,0l50.13-50.13l0,0C420.305,44.058,372.462,24.241,321.575,24.241z"/>
</g>
<g>
</g>
<g>
</g>
<g>
</g>
<g>
</g>
<g>
</g>
<g>
</g>
<g>
</g>
<g>
</g>
<g>
</g>
<g>
</g>
<g>
</g>
<g>
</g>
<g>
</g>
<g>
</g>
<g>
</g>
</svg>
